<?xml version="1.0" encoding="utf-8"?>
<!-- Generator: Adobe Illustrator 16.2.1, SVG Export Plug-In . SVG Version: 6.00 Build 0)  -->
<!DOCTYPE svg PUBLIC "-//W3C//DTD SVG 1.1//EN" "http://www.w3.org/Graphics/SVG/1.1/DTD/svg11.dtd">
<svg version="1.1" id="Layer_1" xmlns="http://www.w3.org/2000/svg" xmlns:xlink="http://www.w3.org/1999/xlink" x="0px" y="0px"
	 width="252px" height="57.153px" viewBox="0 0 252 57.153" enable-background="new 0 0 252 57.153" xml:space="preserve">
<g>
	<g>
		<rect x="1.418" y="1.307" fill="none" width="229.053" height="84.703"/>
		<g enable-background="new    ">
			<path fill="#CBCBCB" d="M33.91,1.354h10.805v54.4H13.341c-2.819,0-5.245-1.009-7.245-3.04c-2-2.032-3.008-4.426-3.008-7.214
				v-20.49c0-2.772,1.008-5.182,3.008-7.214c2-2.032,4.41-3.04,7.245-3.04H33.91V1.354z M13.971,25.593V44.95h19.924V25.593H13.971z
				"/>
		</g>
		<g enable-background="new    ">
			<path fill="#CBCBCB" d="M74.466,25.593H59.268V44.95h15.199v10.805H58.779c-2.866,0-5.308-1.009-7.308-3.04
				c-2-2.032-3.008-4.426-3.008-7.214V2.614h10.804v12.158h15.199V25.593z"/>
		</g>
		<g enable-background="new    ">
			<path fill="#CBCBCB" d="M109.999,14.772c2.819,0,5.245,1.008,7.245,3.04c2,2.032,3.009,4.426,3.009,7.214v15.687H89.508v4.237
				h30.745v10.805H88.941c-2.788,0-5.182-1.009-7.214-3.041c-2.032-2.031-3.04-4.426-3.04-7.213v-20.49
				c0-2.772,1.008-5.182,3.04-7.214s4.426-3.04,7.214-3.04h21.058V14.772z M89.508,31.247h19.924v-5.654H89.508V31.247z"/>
		</g>
		<g enable-background="new    ">
			<path fill="#CBCBCB" d="M165.689,25.593h-30.664V44.95h30.744v10.805h-31.312c-2.787,0-5.182-1.009-7.213-3.04
				c-2.031-2.032-3.039-4.426-3.039-7.214v-20.49c0-2.772,1.008-5.182,3.039-7.214c2.031-2.032,4.426-3.04,7.213-3.04h31.232V25.593
				z"/>
		</g>
		<g enable-background="new    ">
			<path fill="#CBCBCB" d="M195.646,25.593h-15.199V44.95h15.199v10.805h-15.688c-2.865,0-5.307-1.009-7.307-3.04
				c-2-2.032-3.01-4.426-3.01-7.214V2.614h10.805v12.158h15.199V25.593z"/>
		</g>
		<circle fill="#CBCBCB" cx="243.715" cy="34.681" r="8.285"/>
		<circle fill="#D6D6D6" cx="224.312" cy="35.027" r="6.505"/>
		<circle fill="#E0E0E0" cx="208.814" cy="35.39" r="4.379"/>
	</g>
</g>
</svg>
