<?xml version="1.0" encoding="utf-8"?>
<!-- Generator: Adobe Illustrator 17.1.0, SVG Export Plug-In . SVG Version: 6.00 Build 0)  -->
<!DOCTYPE svg PUBLIC "-//W3C//DTD SVG 1.1//EN" "http://www.w3.org/Graphics/SVG/1.1/DTD/svg11.dtd">
<svg version="1.1" id="Layer_1" xmlns="http://www.w3.org/2000/svg" xmlns:xlink="http://www.w3.org/1999/xlink" x="0px" y="0px"
	 viewBox="0 0 719.3 165.3" enable-background="new 0 0 719.3 165.3" xml:space="preserve">
<g>
	<rect x="4.3" y="196.1" fill="none" width="648.4" height="239.7"/>
	<text transform="matrix(1 0 0 1 4.3466 350.0536)"><tspan x="0" y="0" fill="#174268" font-family="'Orbitron-Black'" font-size="200" letter-spacing="-11">d</tspan><tspan x="122.4" y="0" fill="#174268" font-family="'Orbitron-Black'" font-size="200" letter-spacing="-4">t</tspan><tspan x="208.4" y="0" fill="#174268" font-family="'Orbitron-Black'" font-size="200" letter-spacing="-9">e</tspan><tspan x="337.2" y="0" fill="#174268" font-family="'Orbitron-Black'" font-size="200" letter-spacing="-10">c</tspan><tspan x="465.4" y="0" fill="#174268" font-family="'Orbitron-Black'" font-size="200" letter-spacing="-1">t</tspan></text>
	<circle fill="#174268" cx="602.2" cy="290.3" r="23.5"/>
	<circle fill="#3C7699" cx="657.1" cy="291.4" r="18.4"/>
	<circle fill="#64A0BF" cx="701.1" cy="292.3" r="12.4"/>
</g>
<g>
	<rect x="4.3" y="5.1" fill="none" width="648.4" height="239.7"/>
	<text transform="matrix(1 0 0 1 4.3466 159.0536)"><tspan x="0" y="0" fill="#174268" font-family="'Orbitron-Black'" font-size="200" letter-spacing="-11">d</tspan><tspan x="122.4" y="0" fill="#174268" font-family="'Orbitron-Black'" font-size="200" letter-spacing="-4">t</tspan><tspan x="208.4" y="0" fill="#174268" font-family="'Orbitron-Black'" font-size="200" letter-spacing="-9">e</tspan><tspan x="337.2" y="0" fill="#174268" font-family="'Orbitron-Black'" font-size="200" letter-spacing="-10">c</tspan><tspan x="465.4" y="0" fill="#174268" font-family="'Orbitron-Black'" font-size="200" letter-spacing="-1">t</tspan></text>
	<circle fill="#174268" cx="690" cy="99.3" r="23.5"/>
	<circle fill="#3C7699" cx="635.2" cy="100.4" r="18.4"/>
	<circle fill="#64A0BF" cx="591.1" cy="101.3" r="12.4"/>
</g>
<g>
	<rect x="0" y="394.5" fill="none" width="648.4" height="239.7"/>
	<text transform="matrix(1 0 0 1 1.322458e-04 548.6346)"><tspan x="0" y="0" fill="#205E8C" font-family="'Orbitron-Black'" font-size="200.1741" letter-spacing="-11">d</tspan><tspan x="122.5" y="0" fill="#205E8C" font-family="'Orbitron-Black'" font-size="200.1741" letter-spacing="-4">t</tspan><tspan x="208.6" y="0" fill="#205E8C" font-family="'Orbitron-Black'" font-size="200.1741" letter-spacing="-9">e</tspan><tspan x="337.5" y="0" fill="#205E8C" font-family="'Orbitron-Black'" font-size="200.1741" letter-spacing="-10">c</tspan><tspan x="465.8" y="0" fill="#205E8C" font-family="'Orbitron-Black'" font-size="200.1741" letter-spacing="-1">t</tspan></text>
	<rect x="2.4" y="579.1" fill="#174268" width="548.5" height="18.4"/>
	<rect x="2.4" y="567.8" fill="#174268" width="548.5" height="4.7"/>
</g>
<g>
	<rect x="1025.2" y="-168.8" fill="#124269" width="518.1" height="212.3"/>
	<rect x="1051.4" y="-140.5" fill="none" width="540.4" height="199.8"/>
	<text transform="matrix(1 0 0 1 1051.4169 -12.0239)"><tspan x="0" y="0" fill="#E0E2E2" font-family="'Orbitron-Black'" font-size="166.8326" letter-spacing="-9">d</tspan><tspan x="102.1" y="0" fill="#E0E2E2" font-family="'Orbitron-Black'" font-size="166.8326" letter-spacing="-3">t</tspan><tspan x="173.8" y="0" fill="#E0E2E2" font-family="'Orbitron-Black'" font-size="166.8326" letter-spacing="-8">e</tspan><tspan x="281.3" y="0" fill="#E0E2E2" font-family="'Orbitron-Black'" font-size="166.8326" letter-spacing="-9">c</tspan><tspan x="388.2" y="0" fill="#E0E2E2" font-family="'Orbitron-Black'" font-size="166.8326" letter-spacing="-1">t</tspan></text>
	<rect x="1000" y="15.1" fill="#E0E2E2" width="584.5" height="11"/>
</g>
<g>
	<rect x="981.6" y="80.3" fill="#E0E2E2" width="596.5" height="280.9"/>
	<rect x="1109.7" y="105.1" fill="none" width="477.3" height="176.5"/>
	<text transform="matrix(1 0 0 1 1109.655 197.6641)"><tspan x="0" y="0" fill="#124269" font-family="'Orbitron-Black'" font-size="120.2628" letter-spacing="-6">d</tspan><tspan x="73.6" y="0" fill="#124269" font-family="'Orbitron-Black'" font-size="120.2628" letter-spacing="-2">t</tspan><tspan x="125.3" y="0" fill="#124269" font-family="'Orbitron-Black'" font-size="120.2628" letter-spacing="-5">e</tspan><tspan x="202.8" y="0" fill="#124269" font-family="'Orbitron-Black'" font-size="120.2628" letter-spacing="-6">c</tspan><tspan x="279.8" y="0" fill="#124269" font-family="'Orbitron-Black'" font-size="120.2628">t</tspan></text>
	<path fill="none" stroke="#22608E" stroke-width="5" stroke-miterlimit="10" d="M1097.5,80.3c0,0-69.4,145.8,0,145.8h370
		c0,0,73.4-145.8-1.4-145.8H1097.5z"/>
</g>
<g>
	<rect x="393.4" y="711" fill="#E0E2E2" width="542.5" height="280.9"/>
	<path fill="#124269" d="M509.4,711c0,0-69.4,145.8,0,145.8h370c0,0,73.4-145.8-1.4-145.8H509.4z"/>
	<rect x="521.5" y="735.7" fill="none" width="418.9" height="176.5"/>
	<text transform="matrix(1 0 0 1 521.5277 828.3121)"><tspan x="0" y="0" fill="#E0E2E2" font-family="'Orbitron-Black'" font-size="120.2628" letter-spacing="-6">d</tspan><tspan x="73.6" y="0" fill="#E0E2E2" font-family="'Orbitron-Black'" font-size="120.2628" letter-spacing="-2">t</tspan><tspan x="125.3" y="0" fill="#E0E2E2" font-family="'Orbitron-Black'" font-size="120.2628" letter-spacing="-5">e</tspan><tspan x="202.8" y="0" fill="#E0E2E2" font-family="'Orbitron-Black'" font-size="120.2628" letter-spacing="-6">c</tspan><tspan x="279.8" y="0" fill="#E0E2E2" font-family="'Orbitron-Black'" font-size="120.2628">t</tspan></text>
</g>
<g>
	<rect x="982" y="295.3" fill="#E0E2E2" width="542.5" height="280.9"/>
	<path fill="#205E8C" d="M1098,295.3c0,0-69.4,145.8,0,145.8h370c0,0,73.4-145.8-1.4-145.8H1098z"/>
	<rect x="1110.1" y="320" fill="none" width="418.9" height="176.5"/>
	<text transform="matrix(1 0 0 1 1110.132 412.6501)"><tspan x="0" y="0" fill="#E0E2E2" font-family="'Orbitron-Black'" font-size="120.2628" letter-spacing="-6">d</tspan><tspan x="73.6" y="0" fill="#E0E2E2" font-family="'Orbitron-Black'" font-size="120.2628" letter-spacing="-2">t</tspan><tspan x="125.3" y="0" fill="#E0E2E2" font-family="'Orbitron-Black'" font-size="120.2628" letter-spacing="-5">e</tspan><tspan x="202.8" y="0" fill="#E0E2E2" font-family="'Orbitron-Black'" font-size="120.2628" letter-spacing="-6">c</tspan><tspan x="279.8" y="0" fill="#E0E2E2" font-family="'Orbitron-Black'" font-size="120.2628">t</tspan></text>
</g>
</svg>
